<svg id="Layer_1" data-name="Layer 1" xmlns="http://www.w3.org/2000/svg" viewBox="0 0 120.85 38"><g id="g3337"><path id="path3339" d="M21.23,35A18.79,18.79,0,0,1,11.69,0a19.88,19.88,0,1,0,28,19.61A18.8,18.8,0,0,1,21.23,35Z" transform="translate(0 0)" fill="#6ac045"/><circle id="circle3341" cx="25.18" cy="25.66" r="5.01" fill="#6ac045"/><circle id="circle3343" cx="12.12" cy="22.25" r="5.01" fill="#6ac045"/><circle id="circle3345" cx="14.15" cy="9.33" r="5.01" fill="#6ac045"/><circle id="circle3347" cx="20.18" cy="17.24" r="1.89" fill="#6ac045"/><g id="g3349"><path id="path3351" d="M38.31,30.55l2-10.8L35.2,4.09h6L44,14.29l6.67-10.2h6.75L46,19.64,44,29.68Z" transform="translate(0 0)" fill="#6ac045"/><path id="path3353" d="M62.29,9H52.65l3.76-4.95H78.09S74.39,6.38,73.84,9h-5.9l-4,20.64-5.65-.44Z" transform="translate(0 0)" fill="#6ac045"/><path id="path3355" d="M73.32,24.43a12.46,12.46,0,0,0,6.24,1.68c2.2,0,4.2-1,4.2-3.1,0-1.49-1.14-2.47-3.57-3.73-2.83-1.53-5.5-3.57-5.5-7,0-5.34,4.67-8.6,10.44-8.6A12.58,12.58,0,0,1,91.37,5L89.61,9.7a10.59,10.59,0,0,0-5-1.17c-2.63,0-4,1.33-4,2.79S82.26,13.79,84.5,15c3.22,1.69,5.26,3.85,5.26,7,0,5.89-4.87,8.91-10.75,8.91-3.69,0-6.32-.94-7.58-1.88Z" transform="translate(0 0)" fill="#6ac045"/></g><path id="path3357" d="M22.18,37.87c1.14.07,30.55-6.93,59.61.13A97.06,97.06,0,0,0,44,33.75s12.19-3.2,38.86,1.59c0,0-26.56-8.37-51.32-1.13C27.91,35.1,21,37.8,22.18,37.87Z" transform="translate(0 0)" fill="#6ac045"/><g id="text3365" style="isolation:isolate"><text transform="translate(87.69 30.5)" font-size="17.5" fill="#6ac045" font-family="Arial-BoldItalicMT, Arial" font-weight="700" font-style="italic" style="isolation:isolate">.MX</text></g></g></svg>